<mxfile host="65bd71144e">
    <diagram id="ZzXRYPezsTkh8R11HVZL" name="Page-1">
        <mxGraphModel dx="1799" dy="471" grid="1" gridSize="10" guides="1" tooltips="1" connect="1" arrows="1" fold="1" page="1" pageScale="1" pageWidth="827" pageHeight="1169" math="0" shadow="0">
            <root>
                <mxCell id="0"/>
                <mxCell id="1" parent="0"/>
                <mxCell id="5" value="" style="group;fillColor=#6a00ff;fontColor=#ffffff;strokeColor=#3700CC;" parent="1" vertex="1" connectable="0">
                    <mxGeometry x="190" y="150" width="290" height="90" as="geometry"/>
                </mxCell>
                <mxCell id="2" value="Widget" style="swimlane;whiteSpace=wrap;html=1;fillColor=#e1d5e7;strokeColor=#9673a6;" parent="5" vertex="1">
                    <mxGeometry width="290" height="90" as="geometry"/>
                </mxCell>
                <mxCell id="4" value="build(): WidgetState&lt;br&gt;update(state: WidgetState): WidgetState&lt;br&gt;" style="whiteSpace=wrap;html=1;align=left;fillColor=#e1d5e7;strokeColor=#9673a6;" parent="5" vertex="1">
                    <mxGeometry y="23" width="290" height="67" as="geometry"/>
                </mxCell>
                <mxCell id="6" value="" style="group;fillColor=#e1d5e7;strokeColor=#9673a6;" parent="1" vertex="1" connectable="0">
                    <mxGeometry x="280" y="320" width="110" height="80" as="geometry"/>
                </mxCell>
                <mxCell id="7" value="WidgetState" style="swimlane;whiteSpace=wrap;html=1;startSize=23;fillColor=#e1d5e7;strokeColor=#9673a6;" parent="6" vertex="1">
                    <mxGeometry width="109.99999999999999" height="80" as="geometry"/>
                </mxCell>
                <mxCell id="8" value="read()" style="whiteSpace=wrap;html=1;align=left;fillColor=#e1d5e7;strokeColor=#9673a6;" parent="6" vertex="1">
                    <mxGeometry y="20.444444444444443" width="109.99999999999999" height="59.55555555555556" as="geometry"/>
                </mxCell>
                <mxCell id="9" value="" style="group;fillColor=#6a00ff;fontColor=#ffffff;strokeColor=#3700CC;" parent="1" vertex="1" connectable="0">
                    <mxGeometry x="-25" y="480" width="290" height="80" as="geometry"/>
                </mxCell>
                <mxCell id="10" value="Viewable" style="swimlane;whiteSpace=wrap;html=1;fillColor=#e1d5e7;strokeColor=#9673a6;" parent="9" vertex="1">
                    <mxGeometry width="290" height="80" as="geometry"/>
                </mxCell>
                <mxCell id="11" value="view(): WidgetState" style="whiteSpace=wrap;html=1;align=left;fillColor=#e1d5e7;strokeColor=#9673a6;" parent="9" vertex="1">
                    <mxGeometry y="20.444444444444443" width="290" height="59.55555555555555" as="geometry"/>
                </mxCell>
                <mxCell id="12" value="" style="group;fillColor=#e1d5e7;strokeColor=#9673a6;" parent="1" vertex="1" connectable="0">
                    <mxGeometry x="400" y="480" width="110" height="80" as="geometry"/>
                </mxCell>
                <mxCell id="13" value="Renderable" style="swimlane;whiteSpace=wrap;html=1;startSize=23;fillColor=#e1d5e7;strokeColor=#9673a6;" parent="12" vertex="1">
                    <mxGeometry width="109.99999999999999" height="80" as="geometry"/>
                </mxCell>
                <mxCell id="14" value="" style="whiteSpace=wrap;html=1;align=left;fillColor=#e1d5e7;strokeColor=#9673a6;" parent="12" vertex="1">
                    <mxGeometry y="20.444444444444443" width="109.99999999999999" height="59.55555555555556" as="geometry"/>
                </mxCell>
                <mxCell id="15" value="" style="edgeStyle=none;html=1;strokeColor=#000000;" parent="1" source="13" target="8" edge="1">
                    <mxGeometry relative="1" as="geometry"/>
                </mxCell>
                <mxCell id="16" value="build/update" style="edgeStyle=none;html=1;entryX=0.5;entryY=0;entryDx=0;entryDy=0;strokeColor=#000000;" parent="1" source="4" target="7" edge="1">
                    <mxGeometry relative="1" as="geometry"/>
                </mxCell>
                <mxCell id="17" style="edgeStyle=none;html=1;entryX=0;entryY=0.25;entryDx=0;entryDy=0;strokeColor=#000000;" parent="1" source="10" target="4" edge="1">
                    <mxGeometry relative="1" as="geometry">
                        <Array as="points">
                            <mxPoint x="120" y="190"/>
                        </Array>
                    </mxGeometry>
                </mxCell>
                <mxCell id="19" value="view" style="edgeLabel;html=1;align=center;verticalAlign=middle;resizable=0;points=[];" parent="17" vertex="1" connectable="0">
                    <mxGeometry x="-0.1333" y="1" relative="1" as="geometry">
                        <mxPoint as="offset"/>
                    </mxGeometry>
                </mxCell>
                <mxCell id="18" style="edgeStyle=none;html=1;entryX=0.25;entryY=1;entryDx=0;entryDy=0;exitX=0.75;exitY=0;exitDx=0;exitDy=0;strokeColor=#000000;" parent="1" source="10" target="8" edge="1">
                    <mxGeometry relative="1" as="geometry"/>
                </mxCell>
                <mxCell id="22" value="build" style="edgeStyle=none;html=1;" parent="1" source="20" target="21" edge="1">
                    <mxGeometry relative="1" as="geometry"/>
                </mxCell>
                <mxCell id="20" value="App" style="rounded=0;whiteSpace=wrap;html=1;fillColor=#e1d5e7;strokeColor=#9673a6;" parent="1" vertex="1">
                    <mxGeometry x="50" y="760" width="120" height="60" as="geometry"/>
                </mxCell>
                <mxCell id="24" value="view" style="edgeStyle=none;html=1;" parent="1" source="21" target="23" edge="1">
                    <mxGeometry relative="1" as="geometry"/>
                </mxCell>
                <mxCell id="21" value="AppState" style="whiteSpace=wrap;html=1;rounded=0;fillColor=#e1d5e7;strokeColor=#9673a6;" parent="1" vertex="1">
                    <mxGeometry x="250" y="760" width="120" height="60" as="geometry"/>
                </mxCell>
                <mxCell id="33" value="build/update" style="edgeStyle=none;html=1;entryX=0;entryY=0.5;entryDx=0;entryDy=0;" parent="1" source="23" target="28" edge="1">
                    <mxGeometry relative="1" as="geometry"/>
                </mxCell>
                <mxCell id="23" value="" style="whiteSpace=wrap;html=1;rounded=0;fillColor=#fff2cc;strokeColor=#d6b656;" parent="1" vertex="1">
                    <mxGeometry x="450" y="670" width="120" height="240" as="geometry"/>
                </mxCell>
                <mxCell id="25" value="Label" style="rounded=0;whiteSpace=wrap;html=1;fillColor=#e1d5e7;strokeColor=#9673a6;" parent="1" vertex="1">
                    <mxGeometry x="465" y="710" width="90" height="40" as="geometry"/>
                </mxCell>
                <mxCell id="27" value="child" style="edgeStyle=none;html=1;" parent="1" source="26" target="25" edge="1">
                    <mxGeometry relative="1" as="geometry"/>
                </mxCell>
                <mxCell id="26" value="Window" style="rounded=0;whiteSpace=wrap;html=1;fillColor=#e1d5e7;strokeColor=#9673a6;" parent="1" vertex="1">
                    <mxGeometry x="465" y="810" width="90" height="40" as="geometry"/>
                </mxCell>
                <mxCell id="28" value="" style="whiteSpace=wrap;html=1;rounded=0;fillColor=#fff2cc;strokeColor=#d6b656;" parent="1" vertex="1">
                    <mxGeometry x="670" y="670" width="120" height="240" as="geometry"/>
                </mxCell>
                <mxCell id="29" value="LabelState" style="rounded=0;whiteSpace=wrap;html=1;fillColor=#e1d5e7;strokeColor=#9673a6;" parent="1" vertex="1">
                    <mxGeometry x="685" y="710" width="90" height="40" as="geometry"/>
                </mxCell>
                <mxCell id="30" value="child" style="edgeStyle=none;html=1;" parent="1" source="31" target="29" edge="1">
                    <mxGeometry relative="1" as="geometry"/>
                </mxCell>
                <mxCell id="31" value="WindowState" style="rounded=0;whiteSpace=wrap;html=1;fillColor=#e1d5e7;strokeColor=#9673a6;" parent="1" vertex="1">
                    <mxGeometry x="685" y="810" width="90" height="40" as="geometry"/>
                </mxCell>
            </root>
        </mxGraphModel>
    </diagram>
</mxfile>